<?xml version="1.0" standalone="no"?>
<!DOCTYPE svg PUBLIC "-//W3C//DTD SVG 20010904//EN"
 "http://www.w3.org/TR/2001/REC-SVG-20010904/DTD/svg10.dtd">
<svg version="1.0" xmlns="http://www.w3.org/2000/svg"
 width="700.000000pt" height="700.000000pt" viewBox="0 0 700.000000 700.000000"
 preserveAspectRatio="xMidYMid meet">
<metadata>
Created by potrace 1.11, written by Peter Selinger 2001-2013
</metadata>
<g transform="translate(0.000000,700.000000) scale(0.100000,-0.100000)"
fill="#000000" stroke="none">
<path d="M3009 6665 c-31 -17 -29 -13 -160 -330 -56 -137 -103 -251 -105 -253
-1 -2 -116 76 -255 172 -155 108 -262 176 -276 176 -31 0 -80 -25 -92 -48 -6
-10 -24 -151 -41 -313 -17 -162 -32 -297 -33 -300 -1 -4 -130 35 -286 87 -156
52 -294 94 -307 94 -28 0 -80 -43 -88 -73 -3 -12 19 -155 49 -317 29 -162 52
-296 50 -298 -2 -2 -116 1 -254 7 -363 16 -355 16 -390 -16 -55 -51 -55 -55
93 -351 75 -150 136 -276 136 -280 0 -4 -87 -29 -193 -56 -445 -112 -437 -109
-437 -191 0 -41 5 -48 176 -231 97 -104 192 -205 211 -225 l34 -36 -261 -154
c-262 -155 -290 -176 -290 -228 0 -53 22 -70 279 -222 141 -83 259 -154 263
-157 4 -4 -88 -108 -203 -231 -203 -218 -209 -225 -209 -266 0 -75 15 -83 275
-149 127 -32 258 -66 292 -75 35 -8 63 -19 63 -23 0 -4 -61 -130 -136 -280
-148 -296 -148 -300 -93 -350 35 -33 27 -33 390 -17 138 6 252 9 254 7 2 -2
-21 -136 -50 -298 -30 -162 -52 -305 -49 -317 8 -31 60 -73 91 -73 14 0 151
43 306 95 154 53 281 94 282 93 2 -2 17 -138 34 -302 18 -165 36 -307 42 -317
12 -23 60 -49 92 -49 14 0 121 68 276 176 139 97 254 174 255 172 2 -1 49
-115 105 -253 133 -324 129 -314 167 -333 66 -31 80 -20 288 238 103 129 192
235 196 235 4 0 93 -106 196 -235 208 -258 222 -269 288 -238 38 19 34 9 167
333 56 138 104 252 105 254 1 1 116 -76 255 -173 155 -108 262 -176 276 -176
32 0 80 26 92 49 6 10 24 152 42 317 17 164 32 300 33 302 2 1 129 -41 284
-93 155 -52 292 -95 306 -95 30 0 82 42 90 73 3 12 -19 155 -49 317 -29 162
-52 296 -50 298 2 2 116 -1 254 -7 363 -16 355 -16 390 17 55 50 55 54 -93
350 -75 150 -136 276 -136 280 0 4 28 15 63 23 34 9 166 43 292 75 260 66 275
74 275 149 0 41 -6 48 -209 266 -115 123 -207 227 -203 231 4 3 122 74 263
157 257 152 279 169 279 222 0 52 -28 73 -290 228 l-261 154 34 36 c19 20 114
121 211 225 171 183 176 190 176 231 0 82 8 79 -437 191 -106 27 -193 52 -193
56 0 4 61 130 136 280 148 296 148 300 93 351 -35 32 -27 32 -390 16 -138 -6
-252 -9 -255 -7 -2 2 21 136 51 298 30 162 52 304 49 317 -8 32 -60 73 -92 73
-15 -1 -153 -43 -307 -94 -154 -52 -281 -91 -282 -88 -1 4 -16 139 -33 301
-17 162 -35 303 -41 313 -12 23 -61 48 -92 48 -15 0 -119 -66 -277 -176 -139
-96 -253 -174 -254 -172 -2 2 -49 116 -105 253 -133 324 -129 314 -167 333
-66 31 -80 20 -288 -238 -103 -129 -192 -235 -196 -235 -4 0 -92 105 -194 233
-208 259 -228 275 -297 237z m242 -487 c89 -112 172 -213 186 -225 16 -16 37
-23 63 -23 26 0 47 7 63 23 14 12 98 113 187 225 89 112 164 202 166 200 2 -3
51 -119 109 -259 62 -151 113 -261 126 -271 12 -10 38 -18 59 -18 41 0 36 -3
330 203 91 63 166 114 168 112 2 -2 17 -125 32 -274 16 -148 34 -279 39 -290
17 -30 52 -51 87 -51 17 0 145 39 283 86 139 48 254 85 255 83 2 -2 -18 -123
-45 -269 -30 -160 -48 -278 -44 -297 3 -18 17 -41 32 -53 23 -18 39 -20 152
-19 69 1 198 4 286 8 88 4 161 6 163 5 2 -1 -53 -115 -122 -253 -69 -138 -126
-260 -126 -271 0 -34 27 -76 57 -88 15 -6 138 -39 273 -73 135 -34 248 -65
252 -68 4 -4 -77 -98 -181 -209 -194 -207 -212 -233 -192 -285 13 -34 47 -57
295 -202 113 -66 205 -122 206 -125 0 -3 -17 -14 -38 -26 -100 -55 -391 -229
-420 -251 -39 -29 -55 -65 -47 -103 4 -17 81 -108 196 -230 104 -112 186 -207
182 -210 -5 -4 -120 -35 -258 -70 -137 -34 -261 -68 -276 -76 -27 -13 -49 -52
-49 -85 0 -10 57 -132 126 -270 69 -138 124 -252 122 -253 -2 -1 -75 1 -163 5
-88 4 -217 7 -286 8 -113 1 -129 -1 -152 -19 -15 -12 -29 -35 -32 -53 -3 -19
15 -141 44 -297 27 -146 48 -266 47 -267 -1 -2 -117 35 -256 82 -140 47 -268
85 -285 85 -34 0 -69 -21 -85 -50 -6 -11 -24 -142 -40 -291 -15 -149 -30 -272
-32 -274 -2 -2 -75 47 -163 109 -294 206 -294 206 -335 206 -21 0 -47 -8 -59
-17 -13 -11 -64 -121 -127 -273 -58 -140 -107 -256 -109 -258 -2 -2 -76 88
-165 200 -89 112 -173 213 -187 226 -33 30 -93 30 -126 0 -14 -13 -98 -114
-187 -226 -89 -112 -163 -202 -165 -200 -2 2 -51 118 -109 258 -63 152 -114
262 -127 273 -12 9 -38 17 -59 17 -41 0 -41 0 -335 -206 -88 -62 -162 -111
-163 -109 -2 2 -17 125 -32 274 -16 148 -34 279 -39 290 -17 30 -52 51 -86 51
-17 0 -145 -38 -285 -85 -139 -47 -255 -84 -256 -82 -1 1 20 121 47 267 30
158 47 278 44 297 -3 18 -17 41 -32 53 -23 18 -39 20 -152 19 -69 -1 -198 -4
-286 -8 -88 -4 -161 -6 -163 -5 -2 1 53 115 122 253 69 138 126 260 126 270 0
33 -22 72 -49 85 -15 8 -138 42 -276 76 -137 35 -253 66 -258 70 -4 3 78 97
182 209 119 127 192 212 196 230 8 38 -8 75 -47 104 -29 22 -320 196 -420 251
-21 12 -38 23 -38 26 0 3 100 64 222 135 122 72 234 140 249 153 32 26 44 68
31 103 -6 14 -94 114 -196 224 -102 109 -183 202 -178 206 4 3 117 34 252 68
135 34 258 67 273 73 30 12 57 54 57 88 0 11 -57 133 -126 271 -69 138 -124
252 -122 253 2 1 75 -1 163 -5 88 -4 217 -7 286 -8 113 -1 129 1 152 19 15 12
29 35 32 53 3 19 -15 141 -44 297 -27 146 -47 267 -45 269 1 2 116 -35 255
-83 138 -47 266 -86 283 -86 35 0 70 21 86 50 6 11 24 142 40 291 15 149 30
272 32 274 2 2 77 -49 168 -112 298 -208 289 -203 332 -203 27 0 46 7 61 23
12 12 69 136 126 275 57 138 105 252 107 252 2 0 76 -91 165 -202z"/>
<path d="M2585 4925 c-148 -27 -287 -90 -422 -192 -108 -81 -128 -134 -74
-195 46 -52 88 -46 181 25 92 70 182 118 280 149 60 18 97 23 190 23 122 0
188 -12 284 -52 66 -27 102 -25 135 11 31 33 36 84 12 122 -15 25 -38 39 -99
63 -149 57 -333 75 -487 46z"/>
<path d="M4087 4924 c-119 -21 -234 -69 -258 -108 -24 -38 -19 -89 12 -122 33
-36 69 -38 135 -11 96 40 162 52 284 52 188 0 319 -52 505 -200 54 -42 107
-41 146 3 48 53 37 103 -36 165 -226 192 -509 271 -788 221z"/>
<path d="M2613 3991 c-101 -35 -172 -114 -193 -218 -45 -217 163 -404 376
-337 77 24 162 105 187 178 39 114 14 221 -72 306 -86 86 -187 110 -298 71z"/>
<path d="M4195 3993 c-68 -23 -155 -110 -178 -177 -39 -114 -14 -221 72 -307
95 -94 215 -114 338 -54 60 30 123 100 144 162 20 57 16 160 -8 214 -62 139
-225 211 -368 162z"/>
<path d="M2692 2565 c-90 -75 -31 -157 197 -274 204 -104 378 -145 616 -144
271 0 514 73 738 221 112 73 133 135 67 195 -44 39 -82 36 -155 -14 -138 -93
-305 -162 -465 -190 -103 -19 -315 -16 -415 6 -156 33 -289 89 -418 175 -86
58 -120 63 -165 25z"/>
</g>
</svg>
